# xmcd CD database file
#
# Track frame offsets:
#	150
#	21955
#	33523
#	75748
#	96769
#	126812
#	158287
#	176532
#	198365
#	218765
#	250150
#	276067
#	310797
#
# Disc length: 4485 seconds
#
# Revision: 0
# Processed by: cddbd v1.5.2PL0 Copyright (c) Steve Scherf et al.
# Submitted via: CDex 1.70beta2
#
DISCID=a111830d
DTITLE=Oscar Peterson trio and quartet - At the Concertgebouw (1057) and The jazz soul of Oscar peterson
DYEAR=1957
DGENRE=Jazz
TTITLE0=The lady is a tramp
TTITLE1=We'll be together again
TTITLE2=Bluesology (bag's groove)
TTITLE3=Budo
TTITLE4=I've got the world on a string
TTITLE5=daahoud
TTITLE6=When lights are low
TTITLE7=Evrev
TTITLE8=Liza
TTITLE9=Con alma
TTITLE10=Close your eyes
TTITLE11=The maidens of Cadiz
TTITLE12=My heart stood still
EXTD=YEAR: 1957
EXTT0=
EXTT1=
EXTT2=
EXTT3=
EXTT4=
EXTT5=
EXTT6=
EXTT7=
EXTT8=
EXTT9=
EXTT10=
EXTT11=
EXTT12=
PLAYORDER=
